<svg width="600" height="400" viewBox="0 0 600 400" fill="none" xmlns="http://www.w3.org/2000/svg">
<rect width="600" height="400" fill="white"/>
<g clip-path="url(#clip0_25_5)">
<path d="M99.8552 189.145L69.89 179.938C68.2571 179.437 66.4954 179.437 64.8636 179.938L34.8973 189.145C32.3685 189.921 32.3685 193.266 34.8973 194.042L40.1214 195.647C38.9752 197.064 38.2705 198.793 38.2006 200.685C37.1661 201.278 36.4378 202.348 36.4378 203.626C36.4378 204.784 37.048 205.758 37.9267 206.381L35.1841 218.722C34.9457 219.795 35.7621 220.814 36.8611 220.814H42.8887C43.9887 220.814 44.8051 219.795 44.5667 218.722L41.8241 206.381C42.7028 205.758 43.313 204.784 43.313 203.626C43.313 202.383 42.618 201.343 41.6307 200.739C41.7124 199.126 42.5374 197.699 43.8534 196.794L64.8625 203.25C65.8358 203.548 67.7028 203.921 69.8889 203.25L99.8552 194.043C102.385 193.266 102.385 189.922 99.8552 189.145ZM70.8987 206.536C67.8339 207.477 65.2224 206.957 63.8527 206.536L48.2739 201.75L46.7506 213.938C46.7506 217.736 55.9849 220.814 67.3763 220.814C78.7676 220.814 88.0019 217.736 88.0019 213.938L86.4786 201.749L70.8987 206.536Z" fill="#00B3AD"/>
</g>
<path d="M113.211 184.91L113.211 215.466" stroke="#808080" stroke-width="3.05565" stroke-linecap="round"/>
<path d="M128.499 210.873C127.604 210.195 127.388 209.51 127.85 208.818L129.516 206.308C130.064 205.486 130.864 205.443 131.917 206.179C132.725 206.741 133.777 207.325 135.076 207.931C136.388 208.522 137.765 208.818 139.208 208.818C140.217 208.818 141.191 208.703 142.128 208.472C143.066 208.241 143.78 207.794 144.27 207.13C144.76 206.467 145.006 205.681 145.006 204.772C145.006 204.123 144.897 203.554 144.681 203.063C144.465 202.573 144.111 202.169 143.621 201.852C143.131 201.534 142.626 201.268 142.107 201.051C141.198 200.676 140.051 200.308 138.667 199.948C137.297 199.573 135.941 199.126 134.6 198.607C133.402 198.145 132.306 197.51 131.311 196.703C130.316 195.895 129.544 194.986 128.996 193.977C128.448 192.967 128.174 191.619 128.174 189.931C128.174 187.926 128.823 186.21 130.121 184.782C131.419 183.354 132.912 182.439 134.6 182.035C136.287 181.631 137.989 181.429 139.705 181.429C141.407 181.429 143.159 181.689 144.962 182.208C146.78 182.727 148.15 183.376 149.073 184.155C149.981 184.919 150.205 185.612 149.744 186.232L147.991 188.59C147.4 189.398 146.607 189.463 145.611 188.785C144.977 188.352 144.104 187.869 142.994 187.335C141.897 186.801 140.751 186.535 139.554 186.535C138.703 186.535 137.917 186.607 137.196 186.751C136.489 186.895 135.862 187.241 135.313 187.789C134.765 188.338 134.491 189.015 134.491 189.823C134.491 190.602 134.693 191.237 135.097 191.727C135.501 192.203 135.948 192.563 136.438 192.809C136.929 193.039 137.426 193.234 137.931 193.393C139.489 193.898 140.881 194.345 142.107 194.734C143.333 195.109 144.465 195.527 145.503 195.989C146.945 196.638 148.049 197.287 148.813 197.936C149.578 198.585 150.205 199.472 150.695 200.597C151.2 201.722 151.453 203.063 151.453 204.621C151.453 206.929 150.717 208.84 149.246 210.354C147.775 211.854 146.138 212.82 144.335 213.253C142.547 213.7 140.801 213.924 139.099 213.924C136.59 213.924 134.549 213.678 132.977 213.188C131.405 212.712 129.912 211.94 128.499 210.873ZM154.828 197.676C154.828 192.7 156.09 188.749 158.614 185.821C161.138 182.893 164.779 181.429 169.539 181.429C172.279 181.429 174.601 181.854 176.505 182.705C178.409 183.556 179.75 184.79 180.529 186.405C181.048 187.472 180.962 188.193 180.269 188.568L177.673 189.953C176.765 190.443 176.015 190.169 175.423 189.131C175.048 188.467 174.349 187.869 173.325 187.335C172.315 186.801 171.125 186.535 169.755 186.535C166.726 186.535 164.606 187.494 163.395 189.412C162.183 191.316 161.577 194.071 161.577 197.676C161.577 201.282 162.183 204.044 163.395 205.962C164.606 207.866 166.726 208.818 169.755 208.818C171.385 208.818 172.755 208.45 173.866 207.715C174.991 206.979 175.769 206.28 176.202 205.616C176.909 204.534 177.659 204.26 178.452 204.794L181.048 206.525C181.755 207.001 181.827 207.722 181.265 208.688C180.428 210.13 178.993 211.364 176.959 212.388C174.926 213.412 172.452 213.924 169.539 213.924C164.851 213.924 161.224 212.46 158.657 209.532C156.104 206.604 154.828 202.652 154.828 197.676ZM188.62 213.188C187.611 213.188 187.106 212.647 187.106 211.565V183.787C187.106 182.705 187.611 182.165 188.62 182.165H191.909C192.918 182.165 193.423 182.705 193.423 183.787V194.366H205.062V183.787C205.062 182.705 205.567 182.165 206.577 182.165H209.865C210.875 182.165 211.379 182.705 211.379 183.787V211.565C211.379 212.647 210.875 213.188 209.865 213.188H206.577C205.567 213.188 205.062 212.647 205.062 211.565V199.732H193.423V211.565C193.423 212.647 192.918 213.188 191.909 213.188H188.62ZM216.701 197.676C216.701 192.7 217.985 188.749 220.552 185.821C223.12 182.893 226.783 181.429 231.543 181.429C236.302 181.429 239.965 182.893 242.533 185.821C245.1 188.749 246.384 192.7 246.384 197.676C246.384 202.652 245.1 206.604 242.533 209.532C239.965 212.46 236.302 213.924 231.543 213.924C226.783 213.924 223.12 212.46 220.552 209.532C217.985 206.604 216.701 202.652 216.701 197.676ZM223.451 197.676C223.451 201.282 224.093 204.044 225.377 205.962C226.675 207.866 228.73 208.818 231.543 208.818C234.355 208.818 236.403 207.866 237.687 205.962C238.985 204.044 239.634 201.282 239.634 197.676C239.634 194.071 238.985 191.316 237.687 189.412C236.403 187.494 234.355 186.535 231.543 186.535C228.73 186.535 226.675 187.494 225.377 189.412C224.093 191.316 223.451 194.071 223.451 197.676ZM253.22 213.188C252.21 213.188 251.706 212.647 251.706 211.565V183.787C251.706 182.705 252.21 182.165 253.22 182.165H256.725C257.59 182.165 258.023 182.705 258.023 183.787V207.823H270.636C271.717 207.823 272.258 208.292 272.258 209.229V211.782C272.258 212.719 271.717 213.188 270.636 213.188H253.22ZM275.871 213.188C274.833 213.188 274.494 212.712 274.854 211.76L285.455 183.917C285.902 182.749 286.58 182.165 287.489 182.165H290.517C291.426 182.165 292.104 182.749 292.551 183.917L303.152 211.76C303.512 212.712 303.174 213.188 302.135 213.188H298.695C297.743 213.188 297.08 212.69 296.705 211.695L294.498 205.876H283.508L281.301 211.695C280.926 212.69 280.263 213.188 279.311 213.188H275.871ZM285.52 200.51H292.486L289.825 193.631C289.508 192.823 289.313 192.239 289.241 191.878C289.183 191.503 289.118 190.955 289.046 190.234H288.96C288.888 190.955 288.816 191.503 288.743 191.878C288.686 192.239 288.498 192.823 288.181 193.631L285.52 200.51ZM308.517 213.188C307.508 213.188 307.003 212.647 307.003 211.565V183.787C307.003 182.705 307.508 182.165 308.517 182.165H318.534C322.99 182.165 326.243 182.857 328.291 184.241C330.339 185.612 331.363 187.847 331.363 190.948C331.363 193.256 330.534 195.095 328.875 196.465C327.216 197.835 325.111 198.744 322.558 199.191V199.234C323.942 199.753 324.988 200.474 325.695 201.397C326.401 202.32 326.978 203.128 327.425 203.82L332.185 211.328C332.978 212.568 332.704 213.188 331.363 213.188H327.599C326.805 213.188 326.156 212.763 325.651 211.912L321.281 204.621C320.805 203.842 319.933 202.991 318.664 202.068C317.409 201.131 316.161 200.662 314.921 200.662H313.32V211.565C313.32 212.647 312.815 213.188 311.806 213.188H308.517ZM313.32 195.297H317.192C320.077 195.297 322.125 194.972 323.337 194.323C324.563 193.66 325.176 192.614 325.176 191.186C325.176 189.628 324.584 188.619 323.402 188.157C322.233 187.681 320.51 187.443 318.231 187.443H313.32V195.297ZM335.884 183.895C335.567 182.741 335.899 182.165 336.88 182.165H340.882C341.56 182.165 342.014 182.641 342.245 183.592L346.355 200.597C346.658 201.837 346.853 202.688 346.94 203.15C347.041 203.597 347.127 204.325 347.199 205.335H347.307C347.379 204.325 347.452 203.561 347.524 203.042C347.596 202.522 347.805 201.664 348.151 200.467L352.976 183.765C353.278 182.698 353.884 182.165 354.793 182.165H358.773C359.682 182.165 360.288 182.698 360.591 183.765L365.415 200.467C365.761 201.664 365.97 202.522 366.043 203.042C366.115 203.561 366.187 204.325 366.259 205.335H366.367C366.439 204.325 366.519 203.597 366.605 203.15C366.706 202.688 366.908 201.837 367.211 200.597L371.321 183.592C371.552 182.641 372.006 182.165 372.684 182.165H376.687C377.667 182.165 377.999 182.741 377.682 183.895L370.326 211.09C369.951 212.489 369.273 213.188 368.293 213.188H364.507C363.67 213.188 363.057 212.496 362.668 211.111L357.475 192.982C357.187 192.001 357.021 191.366 356.978 191.078C356.935 190.775 356.877 190.22 356.805 189.412H356.762C356.689 190.22 356.632 190.775 356.588 191.078C356.545 191.366 356.379 192.001 356.091 192.982L350.899 211.111C350.509 212.496 349.896 213.188 349.06 213.188H345.274C344.293 213.188 343.615 212.489 343.24 211.09L335.884 183.895ZM383.155 213.188C382.146 213.188 381.641 212.647 381.641 211.565V183.787C381.641 182.705 382.146 182.165 383.155 182.165H386.444C387.453 182.165 387.958 182.705 387.958 183.787V211.565C387.958 212.647 387.453 213.188 386.444 213.188H383.155ZM393.778 187.703C392.696 187.703 392.155 187.234 392.155 186.297V183.571C392.155 182.633 392.696 182.165 393.778 182.165H416.018C417.099 182.165 417.64 182.633 417.64 183.571V186.297C417.64 187.234 417.099 187.703 416.018 187.703H408.056V211.998C408.056 212.791 407.696 213.188 406.975 213.188H402.821C402.1 213.188 401.739 212.791 401.739 211.998V187.703H393.778ZM423.352 213.188C422.342 213.188 421.837 212.647 421.837 211.565V183.787C421.837 182.705 422.342 182.165 423.352 182.165H426.64C427.65 182.165 428.154 182.705 428.154 183.787V194.366H439.794V183.787C439.794 182.705 440.299 182.165 441.308 182.165H444.597C445.606 182.165 446.111 182.705 446.111 183.787V211.565C446.111 212.647 445.606 213.188 444.597 213.188H441.308C440.299 213.188 439.794 212.647 439.794 211.565V199.732H428.154V211.565C428.154 212.647 427.65 213.188 426.64 213.188H423.352ZM451.931 187.703C450.849 187.703 450.308 187.234 450.308 186.297V183.571C450.308 182.633 450.849 182.165 451.931 182.165H474.171C475.252 182.165 475.793 182.633 475.793 183.571V186.297C475.793 187.234 475.252 187.703 474.171 187.703H466.209V211.998C466.209 212.791 465.849 213.188 465.127 213.188H460.974C460.252 213.188 459.892 212.791 459.892 211.998V187.703H451.931ZM481.505 213.188C480.495 213.188 479.99 212.647 479.99 211.565V183.787C479.99 182.705 480.495 182.165 481.505 182.165H500.067C501.148 182.165 501.689 182.633 501.689 183.571V186.124C501.689 187.061 501.148 187.53 500.067 187.53H486.307V194.41H498.92C500.002 194.41 500.543 194.878 500.543 195.816V198.369C500.543 199.306 500.002 199.775 498.92 199.775H486.307V207.823H500.759C501.841 207.823 502.382 208.292 502.382 209.229V211.782C502.382 212.719 501.841 213.188 500.759 213.188H481.505ZM506.081 197.676C506.081 192.7 507.343 188.749 509.867 185.821C512.391 182.893 516.033 181.429 520.792 181.429C523.533 181.429 525.855 181.854 527.759 182.705C529.662 183.556 531.004 184.79 531.782 186.405C532.302 187.472 532.215 188.193 531.523 188.568L528.927 189.953C528.018 190.443 527.268 190.169 526.677 189.131C526.302 188.467 525.602 187.869 524.578 187.335C523.569 186.801 522.379 186.535 521.009 186.535C517.98 186.535 515.86 187.494 514.648 189.412C513.437 191.316 512.831 194.071 512.831 197.676C512.831 201.282 513.437 204.044 514.648 205.962C515.86 207.866 517.98 208.818 521.009 208.818C522.638 208.818 524.009 208.45 525.119 207.715C526.244 206.979 527.023 206.28 527.456 205.616C528.162 204.534 528.912 204.26 529.706 204.794L532.302 206.525C533.008 207.001 533.081 207.722 532.518 208.688C531.682 210.13 530.246 211.364 528.213 212.388C526.179 213.412 523.706 213.924 520.792 213.924C516.105 213.924 512.478 212.46 509.91 209.532C507.357 206.604 506.081 202.652 506.081 197.676ZM539.874 213.188C538.864 213.188 538.359 212.647 538.359 211.565V183.787C538.359 182.705 538.864 182.165 539.874 182.165H543.162C544.172 182.165 544.677 182.705 544.677 183.787V194.366H556.316V183.787C556.316 182.705 556.821 182.165 557.83 182.165H561.119C562.128 182.165 562.633 182.705 562.633 183.787V211.565C562.633 212.647 562.128 213.188 561.119 213.188H557.83C556.821 213.188 556.316 212.647 556.316 211.565V199.732H544.677V211.565C544.677 212.647 544.172 213.188 543.162 213.188H539.874Z" fill="#050000"/>
<defs>
<clipPath id="clip0_25_5">
<rect width="68.7521" height="68.7521" fill="white" transform="translate(33 165.812)"/>
</clipPath>
</defs>
</svg>
