<svg width="380" height="185" viewBox="0 0 380 185" fill="none" xmlns="http://www.w3.org/2000/svg">
<rect width="380" height="185" fill="white"/>
<g clip-path="url(#clip0_25_5)">
<path d="M57.1453 86.0609L37.3589 79.9767C36.2807 79.6451 35.1174 79.6451 34.0399 79.9767L14.2528 86.0609C12.583 86.5742 12.583 88.7843 14.2528 89.2975L17.7024 90.3582C16.9455 91.2946 16.4802 92.4369 16.4341 93.6878C15.751 94.0797 15.27 94.7868 15.27 95.631C15.27 96.3963 15.6729 97.0402 16.2532 97.452L14.4422 105.608C14.2848 106.317 14.8239 106.99 15.5495 106.99H19.5296C20.256 106.99 20.7951 106.317 20.6376 105.608L18.8267 97.452C19.4069 97.0402 19.8098 96.3963 19.8098 95.631C19.8098 94.8096 19.3509 94.1223 18.699 93.7233C18.7529 92.657 19.2977 91.7142 20.1666 91.1164L34.0392 95.3825C34.6819 95.5798 35.9147 95.8262 37.3582 95.3825L57.1453 89.2983C58.8158 88.7843 58.8158 86.5749 57.1453 86.0609ZM38.025 97.5542C36.0012 98.1761 34.2768 97.8325 33.3724 97.5542L23.0856 94.3914L22.0797 102.446C22.0797 104.956 28.1772 106.99 35.6991 106.99C43.2209 106.99 49.3184 104.956 49.3184 102.446L48.3126 94.3907L38.025 97.5542Z" fill="#00B3AD"/>
</g>
<path d="M65.9673 83.2621L65.9673 103.456" stroke="#808080" stroke-width="2.01854" stroke-linecap="round"/>
<path d="M76.0664 99.8299C75.4757 99.3822 75.3328 98.9296 75.6377 98.4723L76.7381 96.8145C77.1002 96.2714 77.629 96.2428 78.3245 96.7287C78.858 97.1003 79.5536 97.4862 80.411 97.8863C81.2781 98.2769 82.1879 98.4723 83.1407 98.4723C83.8076 98.4723 84.4507 98.396 85.07 98.2436C85.6893 98.0912 86.161 97.7958 86.4849 97.3575C86.8088 96.9193 86.9708 96.4 86.9708 95.7998C86.9708 95.371 86.8993 94.9947 86.7564 94.6707C86.6135 94.3468 86.3801 94.08 86.0562 93.8704C85.7322 93.6608 85.3987 93.4846 85.0558 93.3416C84.4555 93.0939 83.6981 92.851 82.7834 92.6128C81.8783 92.3651 80.9827 92.0697 80.0966 91.7267C79.3058 91.4218 78.5817 91.0026 77.9243 90.4691C77.2669 89.9355 76.7572 89.3353 76.3951 88.6683C76.0331 88.0014 75.8521 87.1106 75.8521 85.9959C75.8521 84.6715 76.2808 83.5377 77.1383 82.5945C77.9958 81.6513 78.9819 81.0463 80.0966 80.7795C81.2114 80.5127 82.3356 80.3793 83.4694 80.3793C84.5937 80.3793 85.7513 80.5508 86.9422 80.8938C88.1427 81.2368 89.0478 81.6655 89.6576 82.18C90.2578 82.685 90.4055 83.1423 90.1006 83.552L88.943 85.1098C88.5524 85.6433 88.0284 85.6862 87.371 85.2384C86.9517 84.9526 86.3753 84.6334 85.6417 84.2809C84.9176 83.9284 84.1602 83.7521 83.3694 83.7521C82.8072 83.7521 82.288 83.7997 81.8116 83.895C81.3447 83.9903 80.9303 84.219 80.5682 84.581C80.2062 84.943 80.0252 85.3908 80.0252 85.9244C80.0252 86.4389 80.1586 86.8581 80.4253 87.182C80.6921 87.4965 80.9875 87.7346 81.3114 87.8966C81.6353 88.0491 81.964 88.1777 82.2975 88.2825C83.3265 88.6159 84.2459 88.9113 85.0558 89.1685C85.8656 89.4163 86.6135 89.6926 87.2995 89.9974C88.2523 90.4262 88.9811 90.8549 89.4861 91.2837C89.9911 91.7124 90.4055 92.2984 90.7294 93.0415C91.0629 93.7847 91.2296 94.6707 91.2296 95.6997C91.2296 97.2241 90.7437 98.4866 89.7719 99.487C88.8001 100.478 87.7187 101.116 86.5278 101.402C85.3463 101.697 84.1935 101.845 83.0692 101.845C81.4114 101.845 80.0633 101.683 79.0248 101.359C77.9863 101.045 77.0002 100.535 76.0664 99.8299ZM93.4591 91.1122C93.4591 87.8252 94.2928 85.2146 95.9601 83.2805C97.6274 81.3464 100.033 80.3793 103.177 80.3793C104.988 80.3793 106.521 80.6604 107.779 81.2225C109.037 81.7846 109.923 82.5993 110.437 83.6663C110.78 84.3714 110.723 84.8478 110.266 85.0955L108.551 86.0101C107.951 86.3341 107.455 86.1531 107.065 85.4671C106.817 85.0288 106.355 84.6334 105.678 84.2809C105.011 83.9284 104.225 83.7521 103.32 83.7521C101.319 83.7521 99.9188 84.3857 99.1185 85.6529C98.3182 86.9105 97.918 88.7303 97.918 91.1122C97.918 93.4941 98.3182 95.3186 99.1185 96.5858C99.9188 97.8434 101.319 98.4723 103.32 98.4723C104.397 98.4723 105.302 98.2293 106.036 97.7434C106.779 97.2575 107.293 96.7954 107.579 96.3571C108.046 95.6426 108.541 95.4615 109.065 95.8141L110.78 96.9574C111.247 97.2718 111.295 97.7482 110.923 98.3865C110.371 99.3393 109.423 100.154 108.079 100.83C106.736 101.507 105.102 101.845 103.177 101.845C100.081 101.845 97.6846 100.878 95.9887 98.9439C94.3023 97.0098 93.4591 94.3992 93.4591 91.1122ZM115.782 101.359C115.115 101.359 114.782 101.002 114.782 100.287V81.9371C114.782 81.2225 115.115 80.8652 115.782 80.8652H117.955C118.622 80.8652 118.955 81.2225 118.955 81.9371V88.9256H126.644V81.9371C126.644 81.2225 126.977 80.8652 127.644 80.8652H129.816C130.483 80.8652 130.817 81.2225 130.817 81.9371V100.287C130.817 101.002 130.483 101.359 129.816 101.359H127.644C126.977 101.359 126.644 101.002 126.644 100.287V92.4699H118.955V100.287C118.955 101.002 118.622 101.359 117.955 101.359H115.782ZM134.333 91.1122C134.333 87.8252 135.181 85.2146 136.876 83.2805C138.572 81.3464 140.992 80.3793 144.136 80.3793C147.281 80.3793 149.701 81.3464 151.397 83.2805C153.092 85.2146 153.94 87.8252 153.94 91.1122C153.94 94.3992 153.092 97.0098 151.397 98.9439C149.701 100.878 147.281 101.845 144.136 101.845C140.992 101.845 138.572 100.878 136.876 98.9439C135.181 97.0098 134.333 94.3992 134.333 91.1122ZM138.792 91.1122C138.792 93.4941 139.215 95.3186 140.063 96.5858C140.921 97.8434 142.279 98.4723 144.136 98.4723C145.994 98.4723 147.347 97.8434 148.195 96.5858C149.053 95.3186 149.481 93.4941 149.481 91.1122C149.481 88.7303 149.053 86.9105 148.195 85.6529C147.347 84.3857 145.994 83.7521 144.136 83.7521C142.279 83.7521 140.921 84.3857 140.063 85.6529C139.215 86.9105 138.792 88.7303 138.792 91.1122ZM158.457 101.359C157.79 101.359 157.456 101.002 157.456 100.287V81.9371C157.456 81.2225 157.79 80.8652 158.457 80.8652H160.772C161.343 80.8652 161.629 81.2225 161.629 81.9371V97.8149H169.961C170.676 97.8149 171.033 98.1245 171.033 98.7438V100.43C171.033 101.049 170.676 101.359 169.961 101.359H158.457ZM173.42 101.359C172.734 101.359 172.51 101.045 172.748 100.416L179.751 82.0228C180.046 81.2511 180.494 80.8652 181.094 80.8652H183.095C183.695 80.8652 184.143 81.2511 184.438 82.0228L191.441 100.416C191.679 101.045 191.455 101.359 190.769 101.359H188.497C187.868 101.359 187.43 101.03 187.182 100.373L185.725 96.5286H178.464L177.007 100.373C176.759 101.03 176.321 101.359 175.692 101.359H173.42ZM179.794 92.9844H184.395L182.638 88.4397C182.428 87.9061 182.299 87.5203 182.252 87.2821C182.214 87.0344 182.171 86.6723 182.123 86.1959H182.066C182.018 86.6723 181.971 87.0344 181.923 87.2821C181.885 87.5203 181.761 87.9061 181.551 88.4397L179.794 92.9844ZM194.985 101.359C194.318 101.359 193.985 101.002 193.985 100.287V81.9371C193.985 81.2225 194.318 80.8652 194.985 80.8652H201.602C204.546 80.8652 206.695 81.3226 208.048 82.2372C209.401 83.1423 210.077 84.6191 210.077 86.6675C210.077 88.192 209.529 89.4067 208.434 90.3119C207.338 91.217 205.947 91.8172 204.261 92.1126V92.1412C205.175 92.4842 205.866 92.9605 206.333 93.5703C206.8 94.1801 207.181 94.7136 207.476 95.1709L210.62 100.13C211.144 100.949 210.963 101.359 210.077 101.359H207.59C207.066 101.359 206.638 101.078 206.304 100.516L203.417 95.6997C203.103 95.1852 202.526 94.6231 201.688 94.0133C200.859 93.394 200.035 93.0844 199.216 93.0844H198.158V100.287C198.158 101.002 197.825 101.359 197.158 101.359H194.985ZM198.158 89.5401H200.716C202.622 89.5401 203.975 89.3258 204.775 88.897C205.585 88.4587 205.99 87.768 205.99 86.8248C205.99 85.7958 205.599 85.1288 204.818 84.824C204.046 84.5095 202.908 84.3523 201.402 84.3523H198.158V89.5401ZM213.064 82.0085C212.854 81.2463 213.074 80.8652 213.721 80.8652H216.365C216.813 80.8652 217.113 81.1796 217.266 81.8085L219.981 93.0415C220.181 93.8609 220.31 94.423 220.367 94.7279C220.434 95.0233 220.491 95.5044 220.538 96.1713H220.61C220.658 95.5044 220.705 94.9994 220.753 94.6565C220.8 94.3135 220.939 93.7466 221.167 92.9558L224.354 81.9228C224.554 81.2178 224.954 80.8652 225.555 80.8652H228.184C228.785 80.8652 229.185 81.2178 229.385 81.9228L232.572 92.9558C232.8 93.7466 232.939 94.3135 232.986 94.6565C233.034 94.9994 233.082 95.5044 233.129 96.1713H233.201C233.248 95.5044 233.301 95.0233 233.358 94.7279C233.425 94.423 233.558 93.8609 233.758 93.0415L236.473 81.8085C236.626 81.1796 236.926 80.8652 237.374 80.8652H240.018C240.666 80.8652 240.885 81.2463 240.675 82.0085L235.816 99.9729C235.568 100.897 235.12 101.359 234.473 101.359H231.972C231.419 101.359 231.014 100.902 230.757 99.9872L227.327 88.0109C227.136 87.3631 227.027 86.9438 226.998 86.7533C226.97 86.5532 226.931 86.1864 226.884 85.6529H226.855C226.808 86.1864 226.77 86.5532 226.741 86.7533C226.712 86.9438 226.603 87.3631 226.412 88.0109L222.982 99.9872C222.725 100.902 222.32 101.359 221.768 101.359H219.267C218.619 101.359 218.171 100.897 217.923 99.9729L213.064 82.0085ZM244.291 101.359C243.624 101.359 243.29 101.002 243.29 100.287V81.9371C243.29 81.2225 243.624 80.8652 244.291 80.8652H246.463C247.13 80.8652 247.463 81.2225 247.463 81.9371V100.287C247.463 101.002 247.13 101.359 246.463 101.359H244.291ZM251.308 84.5238C250.593 84.5238 250.236 84.2142 250.236 83.5949V81.7942C250.236 81.1749 250.593 80.8652 251.308 80.8652H265.999C266.714 80.8652 267.071 81.1749 267.071 81.7942V83.5949C267.071 84.2142 266.714 84.5238 265.999 84.5238H260.74V100.573C260.74 101.097 260.502 101.359 260.026 101.359H257.282C256.805 101.359 256.567 101.097 256.567 100.573V84.5238H251.308ZM270.844 101.359C270.177 101.359 269.844 101.002 269.844 100.287V81.9371C269.844 81.2225 270.177 80.8652 270.844 80.8652H273.017C273.683 80.8652 274.017 81.2225 274.017 81.9371V88.9256H281.706V81.9371C281.706 81.2225 282.039 80.8652 282.706 80.8652H284.878C285.545 80.8652 285.879 81.2225 285.879 81.9371V100.287C285.879 101.002 285.545 101.359 284.878 101.359H282.706C282.039 101.359 281.706 101.002 281.706 100.287V92.4699H274.017V100.287C274.017 101.002 273.683 101.359 273.017 101.359H270.844ZM289.723 84.5238C289.009 84.5238 288.651 84.2142 288.651 83.5949V81.7942C288.651 81.1749 289.009 80.8652 289.723 80.8652H304.415C305.129 80.8652 305.487 81.1749 305.487 81.7942V83.5949C305.487 84.2142 305.129 84.5238 304.415 84.5238H299.156V100.573C299.156 101.097 298.917 101.359 298.441 101.359H295.697C295.221 101.359 294.982 101.097 294.982 100.573V84.5238H289.723ZM309.26 101.359C308.593 101.359 308.259 101.002 308.259 100.287V81.9371C308.259 81.2225 308.593 80.8652 309.26 80.8652H321.522C322.236 80.8652 322.594 81.1749 322.594 81.7942V83.4806C322.594 84.0999 322.236 84.4095 321.522 84.4095H312.432V88.9542H320.764C321.479 88.9542 321.836 89.2638 321.836 89.8831V91.5695C321.836 92.1888 321.479 92.4984 320.764 92.4984H312.432V97.8149H321.979C322.694 97.8149 323.051 98.1245 323.051 98.7438V100.43C323.051 101.049 322.694 101.359 321.979 101.359H309.26ZM325.495 91.1122C325.495 87.8252 326.328 85.2146 327.996 83.2805C329.663 81.3464 332.069 80.3793 335.213 80.3793C337.023 80.3793 338.557 80.6604 339.815 81.2225C341.072 81.7846 341.958 82.5993 342.473 83.6663C342.816 84.3714 342.759 84.8478 342.301 85.0955L340.586 86.0101C339.986 86.3341 339.491 86.1531 339.1 85.4671C338.852 85.0288 338.39 84.6334 337.714 84.2809C337.047 83.9284 336.261 83.7521 335.356 83.7521C333.355 83.7521 331.954 84.3857 331.154 85.6529C330.354 86.9105 329.954 88.7303 329.954 91.1122C329.954 93.4941 330.354 95.3186 331.154 96.5858C331.954 97.8434 333.355 98.4723 335.356 98.4723C336.432 98.4723 337.337 98.2293 338.071 97.7434C338.814 97.2575 339.329 96.7954 339.615 96.3571C340.081 95.6426 340.577 95.4615 341.101 95.8141L342.816 96.9574C343.283 97.2718 343.33 97.7482 342.959 98.3865C342.406 99.3393 341.458 100.154 340.115 100.83C338.771 101.507 337.137 101.845 335.213 101.845C332.116 101.845 329.72 100.878 328.024 98.9439C326.338 97.0098 325.495 94.3992 325.495 91.1122ZM347.818 101.359C347.151 101.359 346.817 101.002 346.817 100.287V81.9371C346.817 81.2225 347.151 80.8652 347.818 80.8652H349.99C350.657 80.8652 350.991 81.2225 350.991 81.9371V88.9256H358.679V81.9371C358.679 81.2225 359.013 80.8652 359.68 80.8652H361.852C362.519 80.8652 362.852 81.2225 362.852 81.9371V100.287C362.852 101.002 362.519 101.359 361.852 101.359H359.68C359.013 101.359 358.679 101.002 358.679 100.287V92.4699H350.991V100.287C350.991 101.002 350.657 101.359 349.99 101.359H347.818Z" fill="#050000"/>
<defs>
<clipPath id="clip0_25_5">
<rect width="45.3979" height="45.4365" fill="white" transform="translate(13 70.6409)"/>
</clipPath>
</defs>
</svg>
