<svg width="708" height="86" viewBox="0 0 708 86" fill="none" xmlns="http://www.w3.org/2000/svg">
<g clip-path="url(#clip0_18_13)">
<path d="M77.7928 30.15L42.9253 19.4375C41.0253 18.8538 38.9753 18.8538 37.0766 19.4375L2.20785 30.15C-0.734648 31.0538 -0.734648 34.945 2.20785 35.8488L8.28659 37.7163C6.95284 39.365 6.13284 41.3763 6.05159 43.5788C4.84785 44.2688 4.00035 45.5138 4.00035 47C4.00035 48.3475 4.71035 49.4812 5.73285 50.2062L2.5416 64.5662C2.2641 65.815 3.2141 67 4.49285 67H11.5066C12.7866 67 13.7366 65.815 13.4591 64.5662L10.2678 50.2062C11.2903 49.4812 12.0003 48.3475 12.0003 47C12.0003 45.5538 11.1916 44.3438 10.0428 43.6413C10.1378 41.7638 11.0978 40.1038 12.6291 39.0513L37.0753 46.5625C38.2078 46.91 40.3803 47.3437 42.9241 46.5625L77.7928 35.85C80.7365 34.945 80.7365 31.055 77.7928 30.15ZM44.0991 50.3862C40.5328 51.4812 37.4941 50.8762 35.9003 50.3862L17.7728 44.8175L16.0003 59C16.0003 63.4187 26.7453 67 40.0003 67C53.2553 67 64.0003 63.4187 64.0003 59L62.2278 44.8163L44.0991 50.3862Z" fill="white"/>
</g>
<path d="M95 23L95 63" stroke="white" stroke-width="4" stroke-linecap="round"/>
<path d="M115.186 56.8652C113.975 55.9473 113.682 55.0195 114.307 54.082L116.562 50.6836C117.305 49.5703 118.389 49.5117 119.814 50.5078C120.908 51.2695 122.334 52.0605 124.092 52.8809C125.869 53.6816 127.734 54.082 129.688 54.082C131.055 54.082 132.373 53.9258 133.643 53.6133C134.912 53.3008 135.879 52.6953 136.543 51.7969C137.207 50.8984 137.539 49.834 137.539 48.6035C137.539 47.7246 137.393 46.9531 137.1 46.2891C136.807 45.625 136.328 45.0781 135.664 44.6484C135 44.2188 134.316 43.8574 133.613 43.5645C132.383 43.0566 130.83 42.5586 128.955 42.0703C127.1 41.5625 125.264 40.957 123.447 40.2539C121.826 39.6289 120.342 38.7695 118.994 37.6758C117.646 36.582 116.602 35.3516 115.859 33.9844C115.117 32.6172 114.746 30.791 114.746 28.5059C114.746 25.791 115.625 23.4668 117.383 21.5332C119.141 19.5996 121.162 18.3594 123.447 17.8125C125.732 17.2656 128.037 16.9922 130.361 16.9922C132.666 16.9922 135.039 17.3438 137.48 18.0469C139.941 18.75 141.797 19.6289 143.047 20.6836C144.277 21.7187 144.58 22.6562 143.955 23.4961L141.582 26.6895C140.781 27.7832 139.707 27.8711 138.359 26.9531C137.5 26.3672 136.318 25.7129 134.814 24.9902C133.33 24.2676 131.777 23.9062 130.156 23.9062C129.004 23.9062 127.939 24.0039 126.963 24.1992C126.006 24.3945 125.156 24.8633 124.414 25.6055C123.672 26.3477 123.301 27.2656 123.301 28.3594C123.301 29.4141 123.574 30.2734 124.121 30.9375C124.668 31.582 125.273 32.0703 125.938 32.4023C126.602 32.7148 127.275 32.9785 127.959 33.1934C130.068 33.877 131.953 34.4824 133.613 35.0098C135.273 35.5176 136.807 36.084 138.213 36.709C140.166 37.5879 141.66 38.4668 142.695 39.3457C143.73 40.2246 144.58 41.4258 145.244 42.9492C145.928 44.4727 146.27 46.2891 146.27 48.3984C146.27 51.5234 145.273 54.1113 143.281 56.1621C141.289 58.1934 139.072 59.502 136.631 60.0879C134.209 60.6934 131.846 60.9961 129.541 60.9961C126.143 60.9961 123.379 60.6641 121.25 60C119.121 59.3555 117.1 58.3105 115.186 56.8652ZM150.84 38.9941C150.84 32.2559 152.549 26.9043 155.967 22.9395C159.385 18.9746 164.316 16.9922 170.762 16.9922C174.473 16.9922 177.617 17.5684 180.195 18.7207C182.773 19.873 184.59 21.543 185.645 23.7305C186.348 25.1758 186.23 26.1523 185.293 26.6602L181.777 28.5352C180.547 29.1992 179.531 28.8281 178.73 27.4219C178.223 26.5234 177.275 25.7129 175.889 24.9902C174.521 24.2676 172.91 23.9062 171.055 23.9062C166.953 23.9062 164.082 25.2051 162.441 27.8027C160.801 30.3809 159.98 34.1113 159.98 38.9941C159.98 43.877 160.801 47.6172 162.441 50.2148C164.082 52.793 166.953 54.082 171.055 54.082C173.262 54.082 175.117 53.584 176.621 52.5879C178.145 51.5918 179.199 50.6445 179.785 49.7461C180.742 48.2812 181.758 47.9102 182.832 48.6328L186.348 50.9766C187.305 51.6211 187.402 52.5977 186.641 53.9062C185.508 55.8594 183.564 57.5293 180.811 58.916C178.057 60.3027 174.707 60.9961 170.762 60.9961C164.414 60.9961 159.502 59.0137 156.025 55.0488C152.568 51.084 150.84 45.7324 150.84 38.9941ZM196.602 60C195.234 60 194.551 59.2676 194.551 57.8027V20.1855C194.551 18.7207 195.234 17.9883 196.602 17.9883H201.055C202.422 17.9883 203.105 18.7207 203.105 20.1855V34.5117H218.867V20.1855C218.867 18.7207 219.551 17.9883 220.918 17.9883H225.371C226.738 17.9883 227.422 18.7207 227.422 20.1855V57.8027C227.422 59.2676 226.738 60 225.371 60H220.918C219.551 60 218.867 59.2676 218.867 57.8027V41.7773H203.105V57.8027C203.105 59.2676 202.422 60 201.055 60H196.602ZM234.629 38.9941C234.629 32.2559 236.367 26.9043 239.844 22.9395C243.32 18.9746 248.281 16.9922 254.727 16.9922C261.172 16.9922 266.133 18.9746 269.609 22.9395C273.086 26.9043 274.824 32.2559 274.824 38.9941C274.824 45.7324 273.086 51.084 269.609 55.0488C266.133 59.0137 261.172 60.9961 254.727 60.9961C248.281 60.9961 243.32 59.0137 239.844 55.0488C236.367 51.084 234.629 45.7324 234.629 38.9941ZM243.77 38.9941C243.77 43.877 244.639 47.6172 246.377 50.2148C248.135 52.793 250.918 54.082 254.727 54.082C258.535 54.082 261.309 52.793 263.047 50.2148C264.805 47.6172 265.684 43.877 265.684 38.9941C265.684 34.1113 264.805 30.3809 263.047 27.8027C261.309 25.2051 258.535 23.9062 254.727 23.9062C250.918 23.9062 248.135 25.2051 246.377 27.8027C244.639 30.3809 243.77 34.1113 243.77 38.9941ZM284.082 60C282.715 60 282.031 59.2676 282.031 57.8027V20.1855C282.031 18.7207 282.715 17.9883 284.082 17.9883H288.828C290 17.9883 290.586 18.7207 290.586 20.1855V52.7344H307.666C309.131 52.7344 309.863 53.3691 309.863 54.6387V58.0957C309.863 59.3652 309.131 60 307.666 60H284.082ZM314.756 60C313.35 60 312.891 59.3555 313.379 58.0664L327.734 20.3613C328.34 18.7793 329.258 17.9883 330.488 17.9883H334.59C335.82 17.9883 336.738 18.7793 337.344 20.3613L351.699 58.0664C352.188 59.3555 351.729 60 350.322 60H345.664C344.375 60 343.477 59.3262 342.969 57.9785L339.98 50.0977H325.098L322.109 57.9785C321.602 59.3262 320.703 60 319.414 60H314.756ZM327.822 42.832H337.256L333.652 33.5156C333.223 32.4219 332.959 31.6309 332.861 31.1426C332.783 30.6348 332.695 29.8926 332.598 28.916H332.48C332.383 29.8926 332.285 30.6348 332.188 31.1426C332.109 31.6309 331.855 32.4219 331.426 33.5156L327.822 42.832ZM358.965 60C357.598 60 356.914 59.2676 356.914 57.8027V20.1855C356.914 18.7207 357.598 17.9883 358.965 17.9883H372.529C378.564 17.9883 382.969 18.9258 385.742 20.8008C388.516 22.6562 389.902 25.6836 389.902 29.8828C389.902 33.0078 388.779 35.498 386.533 37.3535C384.287 39.209 381.436 40.4395 377.979 41.0449V41.1035C379.854 41.8066 381.27 42.7832 382.227 44.0332C383.184 45.2832 383.965 46.377 384.57 47.3145L391.016 57.4805C392.09 59.1602 391.719 60 389.902 60H384.805C383.73 60 382.852 59.4238 382.168 58.2715L376.25 48.3984C375.605 47.3438 374.424 46.1914 372.705 44.9414C371.006 43.6719 369.316 43.0371 367.637 43.0371H365.469V57.8027C365.469 59.2676 364.785 60 363.418 60H358.965ZM365.469 35.7715H370.713C374.619 35.7715 377.393 35.332 379.033 34.4531C380.693 33.5547 381.523 32.1387 381.523 30.2051C381.523 28.0957 380.723 26.7285 379.121 26.1035C377.539 25.459 375.205 25.1367 372.119 25.1367H365.469V35.7715ZM396.025 20.332C395.596 18.7695 396.045 17.9883 397.373 17.9883H402.793C403.711 17.9883 404.326 18.6328 404.639 19.9219L410.205 42.9492C410.615 44.6289 410.879 45.7812 410.996 46.4062C411.133 47.0117 411.25 47.998 411.348 49.3652H411.494C411.592 47.998 411.689 46.9629 411.787 46.2598C411.885 45.5566 412.168 44.3945 412.637 42.7734L419.17 20.1562C419.58 18.7109 420.4 17.9883 421.631 17.9883H427.021C428.252 17.9883 429.072 18.7109 429.482 20.1562L436.016 42.7734C436.484 44.3945 436.768 45.5566 436.865 46.2598C436.963 46.9629 437.061 47.998 437.158 49.3652H437.305C437.402 47.998 437.51 47.0117 437.627 46.4062C437.764 45.7812 438.037 44.6289 438.447 42.9492L444.014 19.9219C444.326 18.6328 444.941 17.9883 445.859 17.9883H451.279C452.607 17.9883 453.057 18.7695 452.627 20.332L442.666 57.1582C442.158 59.0527 441.24 60 439.912 60H434.785C433.652 60 432.822 59.0625 432.295 57.1875L425.264 32.6367C424.873 31.3086 424.648 30.4492 424.59 30.0586C424.531 29.6484 424.453 28.8965 424.355 27.8027H424.297C424.199 28.8965 424.121 29.6484 424.062 30.0586C424.004 30.4492 423.779 31.3086 423.389 32.6367L416.357 57.1875C415.83 59.0625 415 60 413.867 60H408.74C407.412 60 406.494 59.0527 405.986 57.1582L396.025 20.332ZM460.039 60C458.672 60 457.988 59.2676 457.988 57.8027V20.1855C457.988 18.7207 458.672 17.9883 460.039 17.9883H464.492C465.859 17.9883 466.543 18.7207 466.543 20.1855V57.8027C466.543 59.2676 465.859 60 464.492 60H460.039ZM474.424 25.4883C472.959 25.4883 472.227 24.8535 472.227 23.584V19.8926C472.227 18.623 472.959 17.9883 474.424 17.9883H504.541C506.006 17.9883 506.738 18.623 506.738 19.8926V23.584C506.738 24.8535 506.006 25.4883 504.541 25.4883H493.76V58.3887C493.76 59.4629 493.271 60 492.295 60H486.67C485.693 60 485.205 59.4629 485.205 58.3887V25.4883H474.424ZM514.473 60C513.105 60 512.422 59.2676 512.422 57.8027V20.1855C512.422 18.7207 513.105 17.9883 514.473 17.9883H518.926C520.293 17.9883 520.977 18.7207 520.977 20.1855V34.5117H536.738V20.1855C536.738 18.7207 537.422 17.9883 538.789 17.9883H543.242C544.609 17.9883 545.293 18.7207 545.293 20.1855V57.8027C545.293 59.2676 544.609 60 543.242 60H538.789C537.422 60 536.738 59.2676 536.738 57.8027V41.7773H520.977V57.8027C520.977 59.2676 520.293 60 518.926 60H514.473ZM553.174 25.4883C551.709 25.4883 550.977 24.8535 550.977 23.584V19.8926C550.977 18.623 551.709 17.9883 553.174 17.9883H583.291C584.756 17.9883 585.488 18.623 585.488 19.8926V23.584C585.488 24.8535 584.756 25.4883 583.291 25.4883H572.51V58.3887C572.51 59.4629 572.021 60 571.045 60H565.42C564.443 60 563.955 59.4629 563.955 58.3887V25.4883H553.174ZM593.223 60C591.855 60 591.172 59.2676 591.172 57.8027V20.1855C591.172 18.7207 591.855 17.9883 593.223 17.9883H618.359C619.824 17.9883 620.557 18.623 620.557 19.8926V23.3496C620.557 24.6191 619.824 25.2539 618.359 25.2539H599.727V34.5703H616.807C618.271 34.5703 619.004 35.2051 619.004 36.4746V39.9316C619.004 41.2012 618.271 41.8359 616.807 41.8359H599.727V52.7344H619.297C620.762 52.7344 621.494 53.3691 621.494 54.6387V58.0957C621.494 59.3652 620.762 60 619.297 60H593.223ZM626.504 38.9941C626.504 32.2559 628.213 26.9043 631.631 22.9395C635.049 18.9746 639.98 16.9922 646.426 16.9922C650.137 16.9922 653.281 17.5684 655.859 18.7207C658.438 19.873 660.254 21.543 661.309 23.7305C662.012 25.1758 661.895 26.1523 660.957 26.6602L657.441 28.5352C656.211 29.1992 655.195 28.8281 654.395 27.4219C653.887 26.5234 652.939 25.7129 651.553 24.9902C650.186 24.2676 648.574 23.9062 646.719 23.9062C642.617 23.9062 639.746 25.2051 638.105 27.8027C636.465 30.3809 635.645 34.1113 635.645 38.9941C635.645 43.877 636.465 47.6172 638.105 50.2148C639.746 52.793 642.617 54.082 646.719 54.082C648.926 54.082 650.781 53.584 652.285 52.5879C653.809 51.5918 654.863 50.6445 655.449 49.7461C656.406 48.2812 657.422 47.9102 658.496 48.6328L662.012 50.9766C662.969 51.6211 663.066 52.5977 662.305 53.9062C661.172 55.8594 659.229 57.5293 656.475 58.916C653.721 60.3027 650.371 60.9961 646.426 60.9961C640.078 60.9961 635.166 59.0137 631.689 55.0488C628.232 51.084 626.504 45.7324 626.504 38.9941ZM672.266 60C670.898 60 670.215 59.2676 670.215 57.8027V20.1855C670.215 18.7207 670.898 17.9883 672.266 17.9883H676.719C678.086 17.9883 678.77 18.7207 678.77 20.1855V34.5117H694.531V20.1855C694.531 18.7207 695.215 17.9883 696.582 17.9883H701.035C702.402 17.9883 703.086 18.7207 703.086 20.1855V57.8027C703.086 59.2676 702.402 60 701.035 60H696.582C695.215 60 694.531 59.2676 694.531 57.8027V41.7773H678.77V57.8027C678.77 59.2676 678.086 60 676.719 60H672.266Z" fill="white"/>
<defs>
<clipPath id="clip0_18_13">
<rect width="79.9999" height="79.9999" fill="white" transform="translate(0 3.00005)"/>
</clipPath>
</defs>
</svg>
